<?xml version="1.0" standalone="no"?>
<!DOCTYPE svg PUBLIC "-//W3C//DTD SVG 20010904//EN"
 "http://www.w3.org/TR/2001/REC-SVG-20010904/DTD/svg10.dtd">
<svg version="1.0" xmlns="http://www.w3.org/2000/svg"
 width="512.000000pt" height="512.000000pt" viewBox="0 0 512.000000 512.000000"
 preserveAspectRatio="xMidYMid meet">
<metadata>
Created by potrace 1.14, written by Peter Selinger 2001-2017
</metadata>
<g transform="translate(0.000000,512.000000) scale(0.100000,-0.100000)"
fill="#000000" stroke="none">
<path d="M2235 5074 c-364 -49 -694 -165 -1000 -351 -320 -195 -643 -518 -838
-838 -248 -409 -367 -836 -367 -1325 0 -489 119 -916 367 -1325 195 -320 518
-643 838 -838 409 -248 836 -367 1325 -367 489 0 916 119 1325 367 319 195
647 522 838 838 249 412 367 837 367 1325 0 343 -51 624 -167 920 -133 338
-312 610 -572 871 -409 408 -897 648 -1474 724 -146 19 -500 19 -642 -1z"/>
</g>
</svg>
