<svg version="1.0" xmlns="http://www.w3.org/2000/svg" width="801.333" height="801.333" viewBox="0 0 601 601"><path d="M0 300.5V601h601V0H0v300.5zm458.1-146c9.9 3.5 18.6 12.6 21.5 22.4 2.1 7 1.5 17.9-1.4 24.3-2.9 6.6-10.4 14.2-17.1 17.5-4.9 2.5-6.7 2.8-15.1 2.8-8 0-10.2-.4-14-2.4-11.1-5.9-17.2-13.7-19.6-25.3-1.4-6.5-1.4-7.9.1-14.3 4.6-20.6 25.5-32.1 45.6-25zm-266.9 60.2l.3 26.8 8.8.3 8.7.3V188h72v54h17v53h-17v54h-72v-54h-18v54h-71l-.2-26.8-.3-26.7-8.7-.3-8.8-.3v-52.8l8.8-.3 8.7-.3-.1-26.8V188H191l.2 26.7zm165.8-3.2c10.5 18.3 10.8 19 8.4 19.3-1.3.2-2.4.5-2.4.8 0 .2 5 10.3 11 22.4 6.1 12.1 11 22.4 11 23 0 .5-.9 1-2 1s-2 .5-2 1c0 .6 4.9 10.9 11 23l11 22-25.8.2-25.7.3-.5 14.5-.5 14.5-3.4.3c-1.9.2-4.4.1-5.7-.2-2.4-.6-2.4-.7-2.4-15.1V324h-25.5c-16.5 0-25.5-.4-25.5-1s5-10.9 11-23c10.6-21.2 10.9-22 8.5-22-1.4 0-2.5-.2-2.5-.5s5-10.4 11-22.5c6.1-12.1 11-22.4 11-22.9s-1.1-1.1-2.4-1.3c-2.2-.3-1.8-1.3 8.7-19.6 6.1-10.6 11.5-19.1 12-18.9.5.1 5.7 8.8 11.7 19.2zm129.3 30.2l12.7.6V294h-17v54h-72v-54h-17v-51.9l8.8-.4c17.4-.6 72-.7 84.5 0zM203.8 384.2c6.6 3.3 9.2 7.5 9.2 15.2 0 6.1-1.5 10-4.7 11.9-2 1.3-1.5 3.3 1.2 4.5 1.3.6 3.7 3 5.2 5.3 2.2 3.4 2.8 5.3 2.7 9.8-.2 15.5-8.9 20.4-35.5 19.9l-14.4-.3-.3-33.5c-.1-18.4 0-34.1.3-34.9.5-1.2 3.3-1.3 16.1-.8 13.5.5 16.1.8 20.2 2.9zm43 28.5l.2 31.3h35v7l-21.2-.2-21.3-.3-.3-33.5c-.1-18.4 0-34.1.3-34.8.3-.8 1.7-1.2 3.7-1l3.3.3.3 31.2zm97.8-28.9c5.5 2.8 10.5 8.8 12.9 15.4 3 7.9 2.8 27.1-.3 34.9-2.3 5.7-7.6 12-12.3 14.4-5.3 2.8-15.3 3.9-22.8 2.6-17.2-3.1-25.3-16.2-23.8-39 .6-10.5 2.7-16.5 7.4-22 6.2-7.3 11.3-9.1 24.8-8.8 7.9.3 10.9.8 14.1 2.5zm82.4-1c5.4 1.7 5.5 1.8 5.8 5.8l.3 4.1-6.8-2.3c-11.7-4-25-3-31.3 2.3-6.1 5.1-7.5 9.4-7.5 23.3 0 10.9.3 13 2.2 16.5 4.7 8.8 10.9 11.9 23.3 11.7 4.7 0 9.9-.5 11.5-1l3-.8.3-10.2.3-10.2h-17.2l.3-3.3.3-3.2h24l.3 15.2c.3 17.2.8 16-8.6 18.9-12.5 3.8-26.7 2.6-35-3-9.2-6.1-14.3-20.1-12.8-35.5 1.4-15.6 7.3-24.4 19.3-28.7 5.5-1.9 21.5-1.7 28.3.4z"/><path d="M175 400.5V412h7.3c17.5 0 23.7-2.9 23.7-11.1 0-5.4-2.3-9.5-6.1-10.8-1.8-.6-8.1-1.1-14-1.1H175v11.5zm0 30.3V444h10.8c13.6-.1 18-1.1 21.5-5 2.1-2.3 2.7-4 2.7-7.5 0-10-4-12.3-22.7-13.2l-12.3-.6v13.1zm142-40.6c-8 4.1-11.1 11.3-11.1 25.8 0 13 2.6 20.4 9.1 25.2 4.1 3 13.4 4.3 20.5 2.8 11.4-2.4 16.5-11 16.5-28 0-20-6.6-27.9-23-28-5.9 0-8.6.5-12 2.2z"/></svg>