<?xml version="1.0" standalone="no"?>
<!DOCTYPE svg PUBLIC "-//W3C//DTD SVG 20010904//EN"
 "http://www.w3.org/TR/2001/REC-SVG-20010904/DTD/svg10.dtd">
<svg version="1.0" xmlns="http://www.w3.org/2000/svg"
 width="1500.000000pt" height="1500.000000pt" viewBox="0 0 1500.000000 1500.000000"
 preserveAspectRatio="xMidYMid meet">
<metadata>
Created by potrace 1.14, written by Peter Selinger 2001-2017
</metadata>
<g transform="translate(0.000000,1500.000000) scale(0.100000,-0.100000)"
fill="#000000" stroke="none">
<path d="M7005 14959 c-1669 -116 -3197 -754 -4455 -1860 -1222 -1074 -2073
-2558 -2384 -4154 -106 -547 -141 -960 -133 -1568 5 -381 10 -463 42 -748 242
-2148 1431 -4105 3240 -5331 1105 -749 2355 -1176 3713 -1268 198 -13 756 -13
954 0 1222 83 2334 429 3368 1048 1901 1138 3205 3071 3544 5252 67 432 81
631 81 1165 0 454 -5 568 -41 875 -233 2016 -1287 3856 -2914 5090 -1172 888
-2548 1399 -4038 1500 -177 12 -800 11 -977 -1z"/>
</g>
</svg>
